<svg id="Layer_1" data-name="Layer 1" xmlns="http://www.w3.org/2000/svg" viewBox="0 0 230 130"><defs><style>.cls-1{fill:#fff;opacity:0.5;}.cls-2{fill:#04ff8e;}.cls-3{fill:#8e2eff;}.cls-4{fill:#00c5ff;}.cls-5{fill:#fff152;}.cls-6{fill:#ff5b5b;}.cls-7{fill:#551c99;}.cls-8{fill:#999131;}</style></defs><title>Artboard 1</title><rect class="cls-1" width="230" height="130" rx="13.5" ry="13.5"/><path d="M149.81,75h23v31.09h-23Z"/><path class="cls-2" d="M145.2,73.89h4.61v33.4H145.2Z"/><path class="cls-3" d="M172.84,83.1h4.61v24.19h-4.61Z"/><path class="cls-4" d="M145.2,106.13h32.25v4.61H145.2Z"/><path class="cls-5" d="M145.2,70.43h18.43V75H145.2Z"/><path class="cls-6" d="M172.84,79.65V75h-4.6V70.43h-4.61V84.25h13.82v-4.6"/><path class="cls-7" d="M172.84,88.86V84.25h4.61"/><path class="cls-8" d="M163.63,70.43V75H159"/><path d="M69.58,56.35a42.77,42.77,0,0,1-12.85,2.16c-7,0-12.11-1.76-15.65-5.16s-5.46-8.36-5.44-14c0-12.8,9.37-20.08,22-20.08a26.83,26.83,0,0,1,10.69,1.85l-1.82,7a21.23,21.23,0,0,0-8.95-1.64c-7.25,0-12.77,4.08-12.77,12.45,0,8,5,12.6,12.14,12.6A12.39,12.39,0,0,0,61.17,51V42.86h-6V36.08H69.58Z"/><path d="M85.07,19.64V58.13H76.36V19.64Z"/><path d="M92.64,20.15a72.78,72.78,0,0,1,11.75-.81c5.34,0,9.2,1,11.77,3.11a11.12,11.12,0,0,1,4.08,8.9,12.12,12.12,0,0,1-3.51,9.11c-3,2.8-7.4,4.09-12.5,4.09a20.14,20.14,0,0,1-3-.2V58.13H92.64Zm8.63,17.46a13.46,13.46,0,0,0,2.88.23c4.62,0,7.48-2.34,7.48-6.24,0-3.54-2.43-5.65-6.81-5.65a16.89,16.89,0,0,0-3.55.29Z"/><path d="M134.5,19.64V34.45h14.35V19.64h8.7V58.13h-8.7V42H134.5V58.13h-8.7V19.64Z"/><path d="M173,58.13V42.35L160.81,19.64h10l3.92,9.26c1.18,2.77,2,4.83,3,7.37h.11c.86-2.4,1.79-4.65,2.9-7.38l3.88-9.25h9.81l-12.7,22.42V58.13Z"/><path d="M47.35,99.67l-2.71,9.88h-9L47.38,71.07H58.77l12,38.48H61.38l-3-9.88Zm9.78-6.48L54.73,85c-.66-2.28-1.34-5.16-1.93-7.41h-.12c-.57,2.26-1.15,5.18-1.76,7.42l-2.3,8.17Z"/><path d="M75.89,71.58a71.59,71.59,0,0,1,11.74-.81c5.34,0,9.2,1,11.78,3.11a11.14,11.14,0,0,1,4.08,8.9A12.13,12.13,0,0,1,100,91.89C97,94.68,92.57,96,87.48,96a20.39,20.39,0,0,1-3-.2v13.78H75.89ZM84.51,89a12.94,12.94,0,0,0,2.89.23c4.62,0,7.47-2.34,7.47-6.24,0-3.54-2.42-5.65-6.81-5.65a17.78,17.78,0,0,0-3.55.29Z"/><path d="M117.75,71.07v38.48h-8.7V71.07Z"/></svg>